<svg height="1000" viewBox="0 0 1000 1000" width="1000" xmlns="http://www.w3.org/2000/svg"><path d="m199.441 475.768h645.968a10.309 10.309 0 0 0 0-20.617h-50.431a131.191 131.191 0 0 0 60.739-110.592c0-72.336-58.864-131.193-131.208-131.193a130.337 130.337 0 0 0 -77.166 25.326l-23.3-27.183 4.188-12.075h27.206a10.309 10.309 0 0 0 0-20.617h-69.086a10.309 10.309 0 1 0 0 20.617h20.057l-46.343 133.634a23.163 23.163 0 0 1 -14.941-15.747c-17.354-62.031-50.058-105.027-92.392-122.837q2.712-14.547 4.521-29.584h25.48a10.309 10.309 0 1 0 0-20.617h-103.625a10.309 10.309 0 1 0 0 20.617h57.366a418.048 418.048 0 0 1 -11.07 57.063 130.3 130.3 0 0 0 -46.3-8.6c-61.841 0-115.443 43.964-128.256 103.617h-96.257a10.312 10.312 0 0 0 -10.308 10.308v518.121a10.312 10.312 0 0 0 10.308 10.308h690.818a10.309 10.309 0 0 0 0-20.617h-50.43a131.188 131.188 0 0 0 60.738-110.591c0-72.337-58.864-131.193-131.208-131.193a130.341 130.341 0 0 0 -77.16 25.323l-23.306-27.19 4.184-12.065h27.206a10.309 10.309 0 0 0 0-20.617h-69.082a10.309 10.309 0 1 0 0 20.617h20.057l-46.343 133.634a23.162 23.162 0 0 1 -14.941-15.745c-17.354-62.006-50.054-105.015-92.392-122.839q2.712-14.55 4.521-29.583h25.48a10.309 10.309 0 1 0 0-20.617h-103.625a10.309 10.309 0 1 0 0 20.617h57.366a418.048 418.048 0 0 1 -11.07 57.063 130.282 130.282 0 0 0 -46.3-8.6c-61.841 0-115.444 43.966-128.257 103.619h-51.4zm0-20.617v-83.016h51.4a131.474 131.474 0 0 0 58.008 83.016zm525.068-221.168a110.584 110.584 0 1 1 -110.062 120.884h110.062a10.314 10.314 0 0 0 7.827-17.025l-71.566-83.484a109.865 109.865 0 0 1 63.739-20.375zm-22.409 100.267h-87.653a110.171 110.171 0 0 1 30.664-66.476zm-85.884-100.184 15.393 17.957a130.765 130.765 0 0 0 -37.778 82.227h-12.357zm-167.759-19.04c34.641 16.337 61.732 53.957 76.807 107.837a43.649 43.649 0 0 0 41.725 32h26.842a131.38 131.38 0 0 0 60.2 100.284h-204.463a130.98 130.98 0 0 0 -5.191-224.229c1.465-5.236 2.812-10.542 4.08-15.892zm-69.357 18.957a109.835 109.835 0 0 1 40.378 7.743c-11.541 35.192-27.7 67.632-48.737 96.809a10.3 10.3 0 1 0 16.72 12.047 372.153 372.153 0 0 0 50.6-99.4 110.478 110.478 0 0 1 -58.961 203.969c-50.628 0-94.7-34.939-107.089-83.016h3.472a27.576 27.576 0 1 0 0-55.152h-3.468c12.396-48.069 56.462-83 107.085-83zm-179.659 601.117v-83h51.4a131.476 131.476 0 0 0 58 83zm525.068-221.167a110.584 110.584 0 1 1 -110.062 120.884h110.062a10.314 10.314 0 0 0 7.827-17.025l-71.56-83.492a109.861 109.861 0 0 1 63.733-20.367zm-22.409 100.267h-87.653a110.171 110.171 0 0 1 30.664-66.476zm-85.884-100.184 15.393 17.957a130.767 130.767 0 0 0 -37.778 82.227h-12.357zm-167.761-19.036c34.647 16.351 61.737 53.97 76.809 107.833a43.65 43.65 0 0 0 41.725 32h26.842a131.376 131.376 0 0 0 60.2 100.283h-204.463a130.979 130.979 0 0 0 -5.191-224.228q2.193-7.853 4.078-15.888zm-69.355 18.953a109.835 109.835 0 0 1 40.378 7.743c-11.541 35.192-27.7 67.632-48.737 96.809a10.3 10.3 0 1 0 16.72 12.049 372.213 372.213 0 0 0 50.6-99.4 110.476 110.476 0 0 1 -58.961 203.966c-50.623 0-94.689-34.93-107.085-83h3.468a27.583 27.583 0 1 0 0-55.166h-3.468c12.396-48.068 56.461-83.001 107.085-83.001zm-103.617 103.618a6.967 6.967 0 1 1 0 13.933h-86.351a10.312 10.312 0 0 0 -10.308 10.308v93.308h-13.924v-497.5h110.583a6.959 6.959 0 1 1 0 13.917h-86.351a10.313 10.313 0 0 0 -10.308 10.309v345.417a10.312 10.312 0 0 0 10.308 10.308z"/></svg>