<?xml version="1.0" encoding="UTF-8"?>
<svg xmlns="http://www.w3.org/2000/svg" xmlns:xlink="http://www.w3.org/1999/xlink" version="1.1" id="Capa_1" x="0px" y="0px" viewBox="0 0 512 512" style="enable-background:new 0 0 512 512;" xml:space="preserve" width="512" height="512">
<g>
	<path style="fill:none;stroke:#000000;stroke-width:15;stroke-linecap:round;stroke-linejoin:round;stroke-miterlimit:10;" d="&#10;&#9;&#9;M504.5,126.82v52.06c0,8.28-6.72,15-15,15h-78.19V38.56h78.19c8.28,0,15,6.72,15,15v40.58"/>
	<path style="fill:none;stroke:#000000;stroke-width:15;stroke-linecap:round;stroke-linejoin:round;stroke-miterlimit:10;" d="&#10;&#9;&#9;M245.29,283.05l15.82-27.4c10.97-19.01,31.25-30.71,53.19-30.71h82.01c8.29,0,15-6.72,15-15V22.5c0-8.28-6.71-15-15-15h-99.49&#10;&#9;&#9;c-44.48,0-85.58,23.74-107.81,62.27L69.6,276.71c-8.55,14.83-3.47,33.78,11.35,42.34l80.82,46.66&#10;&#9;&#9;c14.83,8.56,33.79,3.48,42.35-11.35l24.83-43"/>
	
		<polygon style="fill:none;stroke:#000000;stroke-width:15;stroke-linecap:round;stroke-linejoin:round;stroke-miterlimit:10;" points="&#10;&#9;&#9;63.404,380.651 117.205,411.714 161.718,365.678 81.016,319.084 &#9;"/>
	
		<polyline style="fill:none;stroke:#000000;stroke-width:15;stroke-linecap:round;stroke-linejoin:round;stroke-miterlimit:10;" points="&#10;&#9;&#9;54.28,426.21 76.85,388.42 105.46,404.93 47.98,504.5 7.5,504.5 37.5,454.28 &#9;"/>
	<path style="fill:none;stroke:#000000;stroke-width:15;stroke-linecap:round;stroke-linejoin:round;stroke-miterlimit:10;" d="&#10;&#9;&#9;M116.239,195.951l62.125-107.603l0,0c-13.931-8.043-31.744-3.27-39.787,10.661l-32.998,57.154&#10;&#9;&#9;C97.535,170.094,102.308,187.908,116.239,195.951L116.239,195.951z"/>
	
		<polygon style="fill:none;stroke:#000000;stroke-width:15;stroke-linecap:round;stroke-linejoin:round;stroke-miterlimit:10;" points="&#10;&#9;&#9;302.593,54.095 256,131.751 302.593,131.751 302.593,178.344 349.187,100.689 302.593,100.689 &#9;"/>
	<path style="fill:none;stroke:#000000;stroke-width:15;stroke-linecap:round;stroke-linejoin:round;stroke-miterlimit:10;" d="&#10;&#9;&#9;M188.369,160.92l-72.793,126.157l56.571,32.661l49.995-86.593c3.256-5.639,6.994-10.911,11.146-15.775&#10;&#9;&#9;C213.195,203.56,197.403,183.924,188.369,160.92z"/>
	
		<circle style="fill:none;stroke:#000000;stroke-width:15;stroke-linecap:round;stroke-linejoin:round;stroke-miterlimit:10;" cx="302.593" cy="116.22" r="77.656"/>
</g>















</svg>
