<svg width="84" height="90" viewBox="0 0 84 90" fill="none" xmlns="http://www.w3.org/2000/svg">
<path d="M82.5 0H1.5C0.671625 0 0 0.671625 0 1.5V85.5C0 86.3284 0.671625 87 1.5 87H4.5V90H7.5V87H22.5V90H25.5V87H31.5V90H34.5V87H49.5V90H52.5V87H58.5V90H61.5V87H76.5V90H79.5V87H82.5C83.3284 87 84 86.3284 84 85.5V1.5C84 0.671625 83.3284 0 82.5 0ZM27 84H3V3H27V84ZM54 84H30V3H54V84ZM81 84H57V3H81V84Z" fill="#666666"/>
<path d="M22.5 7.5H7.5V10.5H22.5V7.5Z" fill="#666666"/>
<path d="M22.5 13.5H7.5V16.5H22.5V13.5Z" fill="#666666"/>
<path d="M22.5 19.5H7.5V22.5H22.5V19.5Z" fill="#666666"/>
<path d="M22.5 64.5H7.5V67.5H22.5V64.5Z" fill="#666666"/>
<path d="M22.5 70.5H7.5V73.5H22.5V70.5Z" fill="#666666"/>
<path d="M22.5 76.5H7.5V79.5H22.5V76.5Z" fill="#666666"/>
<path d="M10.5 36H7.5V39H10.5V36Z" fill="#666666"/>
<path d="M10.5 42H7.5V52.5H10.5V42Z" fill="#666666"/>
<path d="M49.5 7.5H34.5V10.5H49.5V7.5Z" fill="#666666"/>
<path d="M49.5 13.5H34.5V16.5H49.5V13.5Z" fill="#666666"/>
<path d="M49.5 19.5H34.5V22.5H49.5V19.5Z" fill="#666666"/>
<path d="M49.5 64.5H34.5V67.5H49.5V64.5Z" fill="#666666"/>
<path d="M49.5 70.5H34.5V73.5H49.5V70.5Z" fill="#666666"/>
<path d="M49.5 76.5H34.5V79.5H49.5V76.5Z" fill="#666666"/>
<path d="M37.5 36H34.5V39H37.5V36Z" fill="#666666"/>
<path d="M37.5 42H34.5V52.5H37.5V42Z" fill="#666666"/>
<path d="M76.5 7.5H61.5V10.5H76.5V7.5Z" fill="#666666"/>
<path d="M76.5 13.5H61.5V16.5H76.5V13.5Z" fill="#666666"/>
<path d="M76.5 19.5H61.5V22.5H76.5V19.5Z" fill="#666666"/>
<path d="M76.5 64.5H61.5V67.5H76.5V64.5Z" fill="#666666"/>
<path d="M76.5 70.5H61.5V73.5H76.5V70.5Z" fill="#666666"/>
<path d="M76.5 76.5H61.5V79.5H76.5V76.5Z" fill="#666666"/>
<path d="M64.5 36H61.5V39H64.5V36Z" fill="#666666"/>
<path d="M64.5 42H61.5V52.5H64.5V42Z" fill="#666666"/>
</svg>
