<svg width="92" height="65" viewBox="0 0 92 65" fill="none" xmlns="http://www.w3.org/2000/svg">
<path d="M86.2437 22.4921C64.7852 2.15613 31.7457 1.08578 9.07089 19.2846C7.81313 20.2942 6.58678 21.3633 5.39564 22.4921C4.11418 23.7065 2.09087 23.6523 0.876417 22.3708C-0.337996 21.0893 -0.283652 19.066 0.997807 17.8516C2.3163 16.602 3.67474 15.4177 5.06885 14.2986C30.2157 -5.88426 66.8434 -4.70126 90.6415 17.8516C91.9228 19.066 91.9773 21.0893 90.763 22.3707C89.5487 23.6523 87.5249 23.7065 86.2437 22.4921Z" fill="#666666"/>
<path d="M13.7232 32.4751C31.4496 14.7489 60.1896 14.7489 77.916 32.4751C79.1645 33.7235 79.1645 35.7477 77.916 36.9961C76.6676 38.2445 74.6439 38.2445 73.3954 36.9961C58.1658 21.7665 33.4736 21.7665 18.244 36.9961C16.9956 38.2445 14.9716 38.2445 13.7232 36.9961C12.4748 35.7477 12.4748 33.7235 13.7232 32.4751Z" fill="#666666"/>
<path d="M26.5101 46.3588C37.1745 35.6945 54.4649 35.6945 65.1292 46.3588C66.3776 47.6072 66.3776 49.6314 65.1292 50.8798C63.8807 52.1282 61.857 52.1282 60.6086 50.8798C52.4407 42.712 39.1986 42.712 31.0309 50.8798C29.7825 52.1282 27.7585 52.1282 26.5101 50.8798C25.2617 49.6314 25.2617 47.6072 26.5101 46.3588Z" fill="#666666"/>
<path d="M45.8197 65C48.7619 65 51.1475 62.6144 51.1475 59.6721C51.1475 56.7294 48.7619 54.3442 45.8197 54.3442C42.877 54.3442 40.4918 56.7294 40.4918 59.6721C40.4918 62.6144 42.877 65 45.8197 65Z" fill="#666666"/>
</svg>
